# xmcd
#
# Track frame offsets:
#	150
#	14353
#	28454
#	42044
#	70872
#	90868
#	117533
#	120544
#	146929
#	167152
#	184505
#	213501
#	232824
#	255734
#	270550
#	273921
#	299346
#
# Disc length: 4381 seconds
#
# Revision: 12
# Processed by: cddbd v1.5.2PL0 Copyright (c) Steve Scherf et al.
# Submitted via: Jack! The Knife 20 Magnifico
#
DISCID=f6111b11
DTITLE=U2 - Rattle And Hum
DYEAR=1988
DGENRE=Rock
TTITLE0=Helter Skelter
TTITLE1=Van Diemen's Land
TTITLE2=Desire
TTITLE3=Hawkmoon 269
TTITLE4=All Along The Watchtower
TTITLE5=I Still Haven't Found What I'm Looking For
TTITLE6=Freedom For My People
TTITLE7=Silver And Gold
TTITLE8=Pride (In The Name Of Love)
TTITLE9=Angel Of Harlem
TTITLE10=Love Rescue Me
TTITLE11=When Love Comes To Town
TTITLE12=Heartland
TTITLE13=God Part II
TTITLE14=The Star Spangled Banner
TTITLE15=Bullet The Blue Sky
TTITLE16=All I Want Is You
EXTD=Jimmy Iovine
EXTT0=Lennon, McCartney
EXTT1=The Edge
EXTT2=U2
EXTT3=U2
EXTT4=Bob Dylan
EXTT5=U2
EXTT6=Magee, Robinson, Mabins
EXTT7=U2
EXTT8=U2
EXTT9=U2
EXTT10=U2
EXTT11=U2
EXTT12=U2
EXTT13=U2
EXTT14=John Stafford Smith
EXTT15=U2
EXTT16=U2
PLAYORDER=
